M48
; DRILL file {KiCad 8.0.8-8.0.8-0~ubuntu24.04.1} date 2025-08-05T21:13:54-0400
; FORMAT={-:-/ absolute / inch / decimal}
; #@! TF.CreationDate,2025-08-05T21:13:54-04:00
; #@! TF.GenerationSoftware,Kicad,Pcbnew,8.0.8-8.0.8-0~ubuntu24.04.1
; #@! TF.FileFunction,Plated,1,2,PTH
FMAT,2
INCH
; #@! TA.AperFunction,Plated,PTH,ComponentDrill
T1C0.0079
; #@! TA.AperFunction,Plated,PTH,ViaDrill
T2C0.0118
%
G90
G05
T1
X7.9563Y-2.9421
X7.9563Y-2.9972
X7.9839Y-2.9146
X7.9839Y-2.9697
X7.9839Y-3.0248
X8.0114Y-2.9421
X8.0114Y-2.9972
X8.039Y-2.9146
X8.039Y-2.9697
X8.039Y-3.0248
X8.0665Y-2.9421
X8.0665Y-2.9972
T2
X7.4654Y-3.2425
X7.5Y-3.935
X7.5138Y-3.3122
X7.5524Y-3.1992
X7.5591Y-3.9402
X7.9726Y-3.7096
X8.0988Y-3.713
X8.3059Y-4.1031
X8.3839Y-4.1433
X8.522Y-3.3654
X8.6417Y-4.1457
M30
