%TF.GenerationSoftware,KiCad,Pcbnew,8.0.8-8.0.8-0~ubuntu24.04.1*%
%TF.CreationDate,2025-08-05T21:13:54-04:00*%
%TF.ProjectId,electronics,656c6563-7472-46f6-9e69-63732e6b6963,rev?*%
%TF.SameCoordinates,Original*%
%TF.FileFunction,Soldermask,Top*%
%TF.FilePolarity,Negative*%
%FSLAX46Y46*%
G04 Gerber Fmt 4.6, Leading zero omitted, Abs format (unit mm)*
G04 Created by KiCad (PCBNEW 8.0.8-8.0.8-0~ubuntu24.04.1) date 2025-08-05 21:13:54*
%MOMM*%
%LPD*%
G01*
G04 APERTURE LIST*
G04 Aperture macros list*
%AMRoundRect*
0 Rectangle with rounded corners*
0 $1 Rounding radius*
0 $2 $3 $4 $5 $6 $7 $8 $9 X,Y pos of 4 corners*
0 Add a 4 corners polygon primitive as box body*
4,1,4,$2,$3,$4,$5,$6,$7,$8,$9,$2,$3,0*
0 Add four circle primitives for the rounded corners*
1,1,$1+$1,$2,$3*
1,1,$1+$1,$4,$5*
1,1,$1+$1,$6,$7*
1,1,$1+$1,$8,$9*
0 Add four rect primitives between the rounded corners*
20,1,$1+$1,$2,$3,$4,$5,0*
20,1,$1+$1,$4,$5,$6,$7,0*
20,1,$1+$1,$6,$7,$8,$9,0*
20,1,$1+$1,$8,$9,$2,$3,0*%
G04 Aperture macros list end*
%ADD10R,1.498600X0.711200*%
%ADD11R,0.812800X0.990600*%
%ADD12RoundRect,0.375000X-0.625000X-0.375000X0.625000X-0.375000X0.625000X0.375000X-0.625000X0.375000X0*%
%ADD13RoundRect,0.500000X-0.500000X-1.400000X0.500000X-1.400000X0.500000X1.400000X-0.500000X1.400000X0*%
%ADD14R,0.250000X0.675000*%
%ADD15R,0.675000X0.250000*%
%ADD16R,1.500000X0.900000*%
%ADD17R,0.900000X1.500000*%
%ADD18C,0.600000*%
%ADD19R,3.900000X3.900000*%
%ADD20RoundRect,0.200000X0.275000X-0.200000X0.275000X0.200000X-0.275000X0.200000X-0.275000X-0.200000X0*%
%ADD21C,0.650000*%
%ADD22RoundRect,0.150000X-0.150000X-0.425000X0.150000X-0.425000X0.150000X0.425000X-0.150000X0.425000X0*%
%ADD23RoundRect,0.075000X-0.075000X-0.500000X0.075000X-0.500000X0.075000X0.500000X-0.075000X0.500000X0*%
%ADD24RoundRect,0.250000X-0.840000X-0.750000X0.840000X-0.750000X0.840000X0.750000X-0.840000X0.750000X0*%
%ADD25RoundRect,0.250000X0.475000X-0.250000X0.475000X0.250000X-0.475000X0.250000X-0.475000X-0.250000X0*%
%ADD26RoundRect,0.225000X-0.250000X0.225000X-0.250000X-0.225000X0.250000X-0.225000X0.250000X0.225000X0*%
%ADD27RoundRect,0.102000X-0.650000X-1.700000X0.650000X-1.700000X0.650000X1.700000X-0.650000X1.700000X0*%
G04 APERTURE END LIST*
D10*
%TO.C,SW1*%
X220254600Y-86590003D03*
X220254600Y-83590000D03*
X220254600Y-82090000D03*
D11*
X220954601Y-87990000D03*
X220954601Y-80690000D03*
X223054599Y-87989980D03*
X223054599Y-80690020D03*
%TD*%
D12*
%TO.C,U5*%
X187090000Y-101977500D03*
X187090000Y-104277500D03*
D13*
X193390000Y-104277500D03*
D12*
X187090000Y-106577500D03*
%TD*%
%TO.C,U3*%
X217120000Y-101977500D03*
X217120000Y-104277500D03*
D13*
X223420000Y-104277500D03*
D12*
X217120000Y-106577500D03*
%TD*%
D14*
%TO.C,U2*%
X193652500Y-82535000D03*
X193152500Y-82535000D03*
X192652500Y-82535000D03*
X192152500Y-82535000D03*
D15*
X191890000Y-83297500D03*
X191890000Y-83797500D03*
X191890000Y-84297500D03*
D14*
X192152500Y-85060000D03*
X192652500Y-85060000D03*
X193152500Y-85060000D03*
X193652500Y-85060000D03*
D15*
X193915000Y-84297500D03*
X193915000Y-83797500D03*
X193915000Y-83297500D03*
%TD*%
D16*
%TO.C,U1*%
X196240000Y-67710000D03*
X196240000Y-68980000D03*
X196240000Y-70250000D03*
X196240000Y-71520000D03*
X196240000Y-72790000D03*
X196240000Y-74060000D03*
X196240000Y-75330000D03*
X196240000Y-76600000D03*
X196240000Y-77870000D03*
X196240000Y-79140000D03*
X196240000Y-80410000D03*
X196240000Y-81680000D03*
X196240000Y-82950000D03*
X196240000Y-84220000D03*
D17*
X198005000Y-85470000D03*
X199275000Y-85470000D03*
X200545000Y-85470000D03*
X201815000Y-85470000D03*
X203085000Y-85470000D03*
X204355000Y-85470000D03*
X205625000Y-85470000D03*
X206895000Y-85470000D03*
X208165000Y-85470000D03*
X209435000Y-85470000D03*
X210705000Y-85470000D03*
X211975000Y-85470000D03*
D16*
X213740000Y-84220000D03*
X213740000Y-82950000D03*
X213740000Y-81680000D03*
X213740000Y-80410000D03*
X213740000Y-79140000D03*
X213740000Y-77870000D03*
X213740000Y-76600000D03*
X213740000Y-75330000D03*
X213740000Y-74060000D03*
X213740000Y-72790000D03*
X213740000Y-71520000D03*
X213740000Y-70250000D03*
X213740000Y-68980000D03*
X213740000Y-67710000D03*
D18*
X202090000Y-74730000D03*
X202090000Y-76130000D03*
X202790000Y-74030000D03*
X202790000Y-75430000D03*
X202790000Y-76830000D03*
X203490000Y-74730000D03*
D19*
X203490000Y-75430000D03*
D18*
X203490000Y-76130000D03*
X204190000Y-74030000D03*
X204190000Y-75430000D03*
X204190000Y-76830000D03*
X204890000Y-74730000D03*
X204890000Y-76130000D03*
%TD*%
D20*
%TO.C,R1*%
X194200000Y-73230000D03*
X194200000Y-71580000D03*
%TD*%
D21*
%TO.C,J1*%
X202040000Y-102705000D03*
X207820000Y-102705000D03*
D22*
X201730000Y-101630000D03*
X202530000Y-101630000D03*
D23*
X203680000Y-101630000D03*
X204680000Y-101630000D03*
X205180000Y-101630000D03*
X206180000Y-101630000D03*
D22*
X207330000Y-101630000D03*
X208130000Y-101630000D03*
X208130000Y-101630000D03*
X207330000Y-101630000D03*
D23*
X206680000Y-101630000D03*
X205680000Y-101630000D03*
X204180000Y-101630000D03*
X203180000Y-101630000D03*
D22*
X202530000Y-101630000D03*
X201730000Y-101630000D03*
D24*
X199820000Y-102205000D03*
X199820000Y-106135000D03*
X210040000Y-102205000D03*
X210040000Y-106135000D03*
%TD*%
D25*
%TO.C,C7*%
X195750000Y-101450000D03*
X195750000Y-103350000D03*
%TD*%
%TO.C,C6*%
X195730000Y-105240000D03*
X195730000Y-107140000D03*
%TD*%
D26*
%TO.C,C4*%
X192070000Y-86485000D03*
X192070000Y-88035000D03*
%TD*%
%TO.C,C3*%
X193700000Y-86500000D03*
X193700000Y-88050000D03*
%TD*%
D25*
%TO.C,C2*%
X214360000Y-103290000D03*
X214360000Y-101390000D03*
%TD*%
%TO.C,C1*%
X214370000Y-106900000D03*
X214370000Y-105000000D03*
%TD*%
D27*
%TO.C,BZ1*%
X214212500Y-94300000D03*
X222912500Y-94300000D03*
%TD*%
M02*
